<?xml version="1.0" standalone="no"?>
<!DOCTYPE svg PUBLIC "-//W3C//DTD SVG 20010904//EN"
 "http://www.w3.org/TR/2001/REC-SVG-20010904/DTD/svg10.dtd">
<svg xmlns="http://www.w3.org/2000/svg" height="800" width="800" viewBox="0 0 200 200"><path d="M24.21477,47.08949,33.11943,52.231a7.70606,7.70606,0,0,0,6.94873,0L96.5261,19.6321a7.70553,7.70553,0,0,1,6.94778-.00047L159.9355,52.231a7.70511,7.70511,0,0,0,6.94828,0l8.90234-5.14052c1.91067-1.1031,1.91067-2.90852,0-4.01209L103.47388,1.32689a7.70786,7.70786,0,0,0-6.94825.0009L24.21477,43.07746C22.30362,44.181,22.30362,45.9864,24.21477,47.08949ZM175.78705,152.90927l-24.75392-14.29366c-1.91067-1.103-1.91067-2.90845,0-4.012l24.753-14.29324c1.91068-1.10354,1.91068-2.90895,0-4.01249L87.62237,65.39519c-1.91118-1.10354-1.91118-2.90895,0-4.01208L96.527,56.24258a7.70436,7.70436,0,0,1,6.94786,0L159.93365,88.841a7.70981,7.70981,0,0,0,6.94921,0l8.90235-5.13962c1.9116-1.10354,1.9116-2.909.00092-4.01249L103.47569,37.93826a7.70618,7.70618,0,0,0-6.9487,0L24.21387,79.68885c-1.91076,1.10354-1.91076,2.909,0,4.01249L48.96912,97.99449c1.91118,1.10313,1.91118,2.90854,0,4.01166L24.21479,116.29881c-1.91068,1.10354-1.91068,2.90894.00042,4.01249L48.9682,134.604c1.91026,1.10354,1.91026,2.909,0,4.01249L24.213,152.90876c-1.91068,1.10313-1.91068,2.90854,0,4.01166l72.31353,41.75192a7.70543,7.70543,0,0,0,6.94837,0l72.3122-41.75058C177.69773,155.81822,177.69773,154.01281,175.78705,152.90927Zm-119.87014-73.22,8.90562-5.14237a7.70743,7.70743,0,0,1,6.9487,0l8.90286,5.142c1.91109,1.103,1.91067,2.909-.0005,4.01207l-8.90278,5.14054a7.70762,7.70762,0,0,1-6.94879.00042l-8.90511-5.14054C54.00623,82.5978,54.00623,80.79239,55.91691,79.68926Zm24.75626,40.622-8.90144,5.1392a7.70873,7.70873,0,0,1-6.9492.0005l-8.90378-5.14012c-1.9111-1.10313-1.9111-2.90853,0-4.01157l8.90428-5.14063a7.70771,7.70771,0,0,1,6.9487.00051l8.90186,5.13962C82.58426,117.40235,82.58426,119.20775,80.67317,120.3113Zm.00092,36.611-8.90236,5.14012a7.70924,7.70924,0,0,1-6.9487,0l-8.9047-5.141c-1.91118-1.10312-1.91118-2.90853,0-4.01157l8.90369-5.14062a7.70787,7.70787,0,0,1,6.94879.0005l8.9037,5.14054C82.58518,154.01373,82.58518,155.81914,80.67409,156.92226Zm63.40708-.00134-40.60732,23.44619a7.70333,7.70333,0,0,1-6.94737,0l-8.90277-5.141c-1.91017-1.10354-1.91017-2.909.0005-4.012l40.60724-23.44443a7.70524,7.70524,0,0,1,6.94828,0l8.90144,5.1387C145.99185,154.01189,145.99185,155.8173,144.08117,156.92092ZM87.62371,134.60445l8.90328-5.141a7.70874,7.70874,0,0,1,6.9487,0l8.90236,5.14012c1.91168,1.103,1.91168,2.90845.001,4.01157l-8.9052,5.14146a7.70743,7.70743,0,0,1-6.9487-.00042l-8.90144-5.1397C85.71253,137.513,85.71253,135.70758,87.62371,134.60445Zm56.45838-14.29357-8.90236,5.14012a7.70873,7.70873,0,0,1-6.9492-.0005L87.62371,102.00565c-1.91118-1.10313-1.91118-2.90845,0-4.01208L96.52515,92.854a7.70743,7.70743,0,0,1,6.9487,0l40.60824,23.44535C145.99276,117.40235,145.99276,119.20775,144.08209,120.31088Z" fill="#393433"/></svg>
